<?xml version="1.0" encoding="UTF-8"?>
<svg width="40px" height="34px" viewBox="0 0 40 34" version="1.1" xmlns="http://www.w3.org/2000/svg" xmlns:xlink="http://www.w3.org/1999/xlink">
    <title>line-graph</title>
    <g id="Dashboard-Views" stroke="none" stroke-width="1" fill="none" fill-rule="evenodd">
        <g id="Entity-dashboard-editor" transform="translate(-1344.000000, -167.000000)" fill-rule="nonzero">
            <g id="Group-7" transform="translate(1328.000000, 48.000000)">
                <g id="line-graph" transform="translate(16.000000, 120.000000)">
                    <polygon id="Path" fill="#0062FF" points="20.5564365 1.23252036 32.2796357 7.36808351 32.3126654 7.38128447 39.6116505 9.06137187 39.6116505 8.60780993 32.4188678 6.93253931 20.3762954 0.6298261 7.54566465 30.8827984 0.518644494 28.5158054 0.517006936 28.9992816 7.7473235 31.4347563"></polygon>
                    <ellipse id="Oval-4" stroke="#0062FF" stroke-width="1.5" fill="#FFFFFF" cx="7.38198485" cy="31.1536124" rx="1" ry="1"></ellipse>
                    <ellipse id="Oval-4" stroke="#0062FF" stroke-width="1.5" fill="#FFFFFF" cx="20.4553118" cy="0.965879767" rx="1" ry="1"></ellipse>
                    <ellipse id="Oval-4" stroke="#0062FF" stroke-width="1.5" fill="#FFFFFF" cx="32.9035933" cy="7.36518009" rx="1" ry="1"></ellipse>
                    <polygon id="Path" fill="#0062FF" points="0.129449838 13.592233 0.906148867 13.592233 0.906148867 13.4368932 0.129449838 13.4368932"></polygon>
                    <polygon id="Path" fill="#0062FF" points="1.42394822 13.592233 2.20064725 13.592233 2.20064725 13.4368932 1.42394822 13.4368932"></polygon>
                    <polygon id="Path" fill="#0062FF" points="2.7184466 13.592233 3.49514563 13.592233 3.49514563 13.4368932 2.7184466 13.4368932"></polygon>
                    <polygon id="Path" fill="#0062FF" points="4.01294498 13.592233 4.78964401 13.592233 4.78964401 13.4368932 4.01294498 13.4368932"></polygon>
                    <polygon id="Path" fill="#0062FF" points="5.30744337 13.592233 6.08414239 13.592233 6.08414239 13.4368932 5.30744337 13.4368932"></polygon>
                    <polygon id="Path" fill="#0062FF" points="6.60194175 13.592233 7.37864078 13.592233 7.37864078 13.4368932 6.60194175 13.4368932"></polygon>
                    <polygon id="Path" fill="#0062FF" points="7.89644013 13.592233 8.67313916 13.592233 8.67313916 13.4368932 7.89644013 13.4368932"></polygon>
                    <polygon id="Path" fill="#0062FF" points="9.19093851 13.592233 9.96763754 13.592233 9.96763754 13.4368932 9.19093851 13.4368932"></polygon>
                    <polygon id="Path" fill="#0062FF" points="10.4854369 13.592233 11.2621359 13.592233 11.2621359 13.4368932 10.4854369 13.4368932"></polygon>
                    <polygon id="Path" fill="#0062FF" points="11.7799353 13.592233 12.5566343 13.592233 12.5566343 13.4368932 11.7799353 13.4368932"></polygon>
                    <polygon id="Path" fill="#0062FF" points="13.0744337 13.592233 13.8511327 13.592233 13.8511327 13.4368932 13.0744337 13.4368932"></polygon>
                    <polygon id="Path" fill="#0062FF" points="14.368932 13.592233 15.1456311 13.592233 15.1456311 13.4368932 14.368932 13.4368932"></polygon>
                    <polygon id="Path" fill="#0062FF" points="15.6634304 13.592233 16.4401294 13.592233 16.4401294 13.4368932 15.6634304 13.4368932"></polygon>
                    <polygon id="Path" fill="#0062FF" points="16.9579288 13.592233 17.7346278 13.592233 17.7346278 13.4368932 16.9579288 13.4368932"></polygon>
                    <polygon id="Path" fill="#0062FF" points="18.2524272 13.592233 19.0291262 13.592233 19.0291262 13.4368932 18.2524272 13.4368932"></polygon>
                    <polygon id="Path" fill="#0062FF" points="19.5469256 13.592233 20.3236246 13.592233 20.3236246 13.4368932 19.5469256 13.4368932"></polygon>
                    <polygon id="Path" fill="#0062FF" points="20.8414239 13.592233 21.618123 13.592233 21.618123 13.4368932 20.8414239 13.4368932"></polygon>
                    <polygon id="Path" fill="#0062FF" points="22.1359223 13.592233 22.9126214 13.592233 22.9126214 13.4368932 22.1359223 13.4368932"></polygon>
                    <polygon id="Path" fill="#0062FF" points="23.4304207 13.592233 24.2071197 13.592233 24.2071197 13.4368932 23.4304207 13.4368932"></polygon>
                    <polygon id="Path" fill="#0062FF" points="24.7249191 13.592233 25.5016181 13.592233 25.5016181 13.4368932 24.7249191 13.4368932"></polygon>
                    <polygon id="Path" fill="#0062FF" points="26.0194175 13.592233 26.7961165 13.592233 26.7961165 13.4368932 26.0194175 13.4368932"></polygon>
                    <polygon id="Path" fill="#0062FF" points="27.3139159 13.592233 28.0906149 13.592233 28.0906149 13.4368932 27.3139159 13.4368932"></polygon>
                    <polygon id="Path" fill="#0062FF" points="28.6084142 13.592233 29.3851133 13.592233 29.3851133 13.4368932 28.6084142 13.4368932"></polygon>
                    <polygon id="Path" fill="#0062FF" points="29.9029126 13.592233 30.6796117 13.592233 30.6796117 13.4368932 29.9029126 13.4368932"></polygon>
                    <polygon id="Path" fill="#0062FF" points="31.197411 13.592233 31.97411 13.592233 31.97411 13.4368932 31.197411 13.4368932"></polygon>
                    <polygon id="Path" fill="#0062FF" points="32.4919094 13.592233 33.2686084 13.592233 33.2686084 13.4368932 32.4919094 13.4368932"></polygon>
                    <polygon id="Path" fill="#0062FF" points="33.7864078 13.592233 34.5631068 13.592233 34.5631068 13.4368932 33.7864078 13.4368932"></polygon>
                    <polygon id="Path" fill="#0062FF" points="35.0809061 13.592233 35.8576052 13.592233 35.8576052 13.4368932 35.0809061 13.4368932"></polygon>
                    <polygon id="Path" fill="#0062FF" points="36.3754045 13.592233 37.1521036 13.592233 37.1521036 13.4368932 36.3754045 13.4368932"></polygon>
                    <polygon id="Path" fill="#0062FF" points="37.6699029 13.592233 38.4466019 13.592233 38.4466019 13.4368932 37.6699029 13.4368932"></polygon>
                    <polygon id="Path" fill="#0062FF" points="38.9644013 13.592233 39.3527508 13.592233 39.3527508 13.4368932 38.9644013 13.4368932"></polygon>
                </g>
            </g>
        </g>
    </g>
</svg>