<svg width="40" height="32" xmlns="http://www.w3.org/2000/svg" xmlns:xlink="http://www.w3.org/1999/xlink"><defs><path d="M14.94 13.26l-6.5-12a.5.5 0 00-.88 0l-6.5 12a.5.5 0 000 .5.5.5 0 00.44.24h13a.5.5 0 00.44-.74z" id="a"/><path d="M8 10.5A.75.75 0 118 12a.75.75 0 010-1.5zm.565-4.995v4H7.44v-4h1.125z" id="b"/></defs><g fill="none" fill-rule="evenodd"><path fill="#0058FF" d="M0 0h40v2.759H0z"/><path stroke="#005BFF" d="M.5 3.259h39V31.5H.5z"/><path fill="#D8D8D8" d="M3.5 6.621h19V9.38h-19zM25 6.621h11V9.38H25zM3.5 18.759h19v2.759h-19zM3.5 12.69h19v2.759h-19zM25 12.69h11v2.759H25zM3.5 24.828h19v2.759h-19z"/><g transform="translate(21 13.714)"><use fill="#0F62FE" xlink:href="#a"/><use fill="#FFF" xlink:href="#b"/></g></g></svg>