<svg xmlns="http://www.w3.org/2000/svg" xmlns:xlink="http://www.w3.org/1999/xlink" viewBox="0 0 170.76 146.75"><defs><linearGradient id="a" x1="85.02" y1="138.57" x2="85.02" y2="70.53" gradientUnits="userSpaceOnUse"><stop offset="0" stop-color="#0062ff"/><stop offset="1" stop-color="#bb8eff"/></linearGradient><linearGradient id="b" x1="460.66" y1="1323.44" x2="461.66" y2="1323.44" gradientTransform="matrix(45.26, 0, 0, -45.26, -20808.3, 59995.18)" gradientUnits="userSpaceOnUse"><stop offset="0" stop-color="#50565b"/><stop offset="0.19" stop-color="#50565b"/><stop offset="0.54" stop-color="#484e53"/><stop offset="1" stop-color="#373d42"/></linearGradient><linearGradient id="c" x1="488.34" y1="1323.51" x2="489.34" y2="1323.51" gradientTransform="translate(22187.62 59882.18) rotate(180) scale(45.17)" gradientUnits="userSpaceOnUse"><stop offset="0" stop-color="#202529"/><stop offset="0.19" stop-color="#202529"/><stop offset="0.54" stop-color="#272c30"/><stop offset="1" stop-color="#373d42"/></linearGradient><radialGradient id="d" cx="491.44" cy="1331.47" r="1" gradientTransform="translate(18218.2 49213.5) rotate(180) scale(36.9)" gradientUnits="userSpaceOnUse"><stop offset="0" stop-color="#50565b"/><stop offset="0.18" stop-color="#484e52"/><stop offset="0.47" stop-color="#33373a"/><stop offset="0.83" stop-color="#121314"/><stop offset="1"/></radialGradient></defs><title>data-scientist-illustration-01</title><polygon points="84.75 41.24 0.02 90.24 85.3 139.24 170.02 90.24 84.75 41.24" fill="url(#a)"/><polygon points="85.08 139.1 85.02 145.24 169.97 96.38 170.02 90.24 85.08 139.1" fill="#054ada"/><polygon points="85.02 139.1 0.08 90.24 0.02 96.38 84.97 145.24 84.97 145.24 85.02 139.1" fill="#051b75"/><polygon points="132.71 93.24 84.99 66.15 35.73 92.02 84.22 120.7 132.71 93.24" fill="#0530ad"/><polygon points="101.65 68.08 105.15 65.5 108.57 67.58 105.11 70.08 101.65 68.08" fill="#b9bfc7" fill-rule="evenodd"/><polygon points="111.57 67.03 113.51 68.28 110.96 70.08 109.18 68.83 111.57 67.03" fill="#b9bfc7" fill-rule="evenodd"/><polygon points="108.57 67.58 110.96 70.08 108.03 68.13 105.46 70.08 105.11 70.08 108.57 67.58" fill="#5a6775" fill-rule="evenodd"/><polygon points="93.85 63.66 97.35 61.08 100.77 63.16 97.31 65.66 93.85 63.66" fill="#b9bfc7" fill-rule="evenodd"/><polygon points="103.77 62.61 105.71 63.86 103.16 65.66 101.38 64.41 103.77 62.61" fill="#b9bfc7" fill-rule="evenodd"/><polygon points="100.77 63.16 103.16 65.66 100.23 63.71 97.66 65.66 97.31 65.66 100.77 63.16" fill="#5a6775" fill-rule="evenodd"/><polygon points="86.16 59.06 89.66 56.47 93.07 58.56 89.61 61.06 86.16 59.06" fill="#b9bfc7" fill-rule="evenodd"/><polygon points="96.08 58.01 98.01 59.26 95.47 61.06 93.68 59.81 96.08 58.01" fill="#b9bfc7" fill-rule="evenodd"/><polygon points="93.07 58.56 95.47 61.06 92.53 59.11 89.97 61.06 89.61 61.06 93.07 58.56" fill="#5a6775" fill-rule="evenodd"/><polygon points="125.59 82.09 129.09 79.51 132.51 81.59 129.05 84.09 125.59 82.09" fill="#b9bfc7" fill-rule="evenodd"/><polygon points="135.51 81.05 137.45 82.3 134.9 84.09 133.12 82.84 135.51 81.05" fill="#b9bfc7" fill-rule="evenodd"/><polygon points="132.51 81.59 134.9 84.09 131.96 82.14 129.4 84.09 129.05 84.09 132.51 81.59" fill="#5a6775" fill-rule="evenodd"/><polygon points="68.56 68.08 65.06 65.5 61.64 67.58 65.1 70.08 68.56 68.08" fill="#b9bfc7" fill-rule="evenodd"/><polygon points="58.64 67.03 56.7 68.28 59.24 70.08 61.03 68.83 58.64 67.03" fill="#b9bfc7" fill-rule="evenodd"/><polygon points="61.64 67.58 59.24 70.08 62.18 68.13 64.74 70.08 65.1 70.08 61.64 67.58" fill="#5a6775" fill-rule="evenodd"/><polygon points="76.52 63.45 73.02 60.87 69.61 62.95 73.06 65.45 76.52 63.45" fill="#b9bfc7" fill-rule="evenodd"/><polygon points="66.6 62.41 64.67 63.66 67.21 65.45 68.99 64.2 66.6 62.41" fill="#b9bfc7" fill-rule="evenodd"/><polygon points="69.61 62.95 67.21 65.45 70.15 63.5 72.71 65.45 73.06 65.45 69.61 62.95" fill="#5a6775" fill-rule="evenodd"/><polygon points="84.22 59.06 80.72 56.47 77.3 58.56 80.76 61.06 84.22 59.06" fill="#b9bfc7" fill-rule="evenodd"/><polygon points="74.3 58.01 72.36 59.26 74.9 61.06 76.69 59.81 74.3 58.01" fill="#b9bfc7" fill-rule="evenodd"/><polygon points="77.3 58.56 74.9 61.06 77.84 59.11 80.4 61.06 80.76 61.06 77.3 58.56" fill="#5a6775" fill-rule="evenodd"/><polygon points="45.01 81.47 41.51 78.88 38.1 80.97 41.55 83.47 45.01 81.47" fill="#b9bfc7" fill-rule="evenodd"/><polygon points="35.09 80.42 33.16 81.67 35.7 83.47 37.48 82.22 35.09 80.42" fill="#b9bfc7" fill-rule="evenodd"/><polygon points="38.1 80.97 35.7 83.47 38.64 81.52 41.2 83.47 41.55 83.47 38.1 80.97" fill="#5a6775" fill-rule="evenodd"/><polygon points="52.88 77.25 49.38 74.66 45.96 76.75 49.42 79.25 52.88 77.25" fill="#b9bfc7" fill-rule="evenodd"/><polygon points="42.96 76.2 41.02 77.45 43.57 79.25 45.35 78 42.96 76.2" fill="#b9bfc7" fill-rule="evenodd"/><polygon points="45.96 76.75 43.57 79.25 46.51 77.3 49.07 79.25 49.42 79.25 45.96 76.75" fill="#5a6775" fill-rule="evenodd"/><polygon points="60.49 72.66 56.99 70.08 53.57 72.16 57.03 74.66 60.49 72.66" fill="#b9bfc7" fill-rule="evenodd"/><polygon points="50.57 71.62 48.63 72.87 51.17 74.66 52.96 73.41 50.57 71.62" fill="#b9bfc7" fill-rule="evenodd"/><polygon points="53.57 72.16 51.17 74.66 54.11 72.72 56.67 74.66 57.03 74.66 53.57 72.16" fill="#5a6775" fill-rule="evenodd"/><polygon points="117.83 77.61 121.33 75.03 124.75 77.11 121.29 79.61 117.83 77.61" fill="#b9bfc7" fill-rule="evenodd"/><polygon points="127.75 76.56 129.69 77.81 127.14 79.61 125.36 78.36 127.75 76.56" fill="#b9bfc7" fill-rule="evenodd"/><polygon points="124.75 77.11 127.14 79.61 124.21 77.66 121.64 79.61 121.29 79.61 124.75 77.11" fill="#5a6775" fill-rule="evenodd"/><polygon points="109.72 73.03 113.22 70.44 116.64 72.53 113.18 75.03 109.72 73.03" fill="#b9bfc7" fill-rule="evenodd"/><polygon points="119.64 71.98 121.58 73.23 119.03 75.03 117.25 73.78 119.64 71.98" fill="#b9bfc7" fill-rule="evenodd"/><polygon points="116.64 72.53 119.03 75.03 116.09 73.08 113.53 75.03 113.18 75.03 116.64 72.53" fill="#5a6775" fill-rule="evenodd"/><polyline points="39.55 84.5 39.55 91.05 84.85 117.12 84.86 110.51 39.57 84.51" fill="url(#b)"/><polygon points="84.86 110.51 84.85 117.12 130.02 91.04 130.02 84.5 84.86 110.51" fill="url(#c)"/><polygon points="130.02 84.5 85.1 58.33 39.57 84.51 84.86 110.51 130.02 84.5" fill="url(#d)"/><polyline points="81.06 103.13 81.07 103.14 81.09 103.14 81.06 103.13" fill="#05030d"/><polygon points="58.12 84.94 85.74 69.08 113.32 85.02 85.56 100.32 58.12 84.94" fill="#b9bfc7"/><polygon points="79.1 110.49 82.09 112.25 76.8 115.64 73.67 113.74 79.1 110.49" fill="#b9bfc7"/><polygon points="73.67 113.74 71.37 119.44 73.67 120.67 76.8 115.64 73.67 113.74" fill="#f3f3f3"/><polygon points="71.37 119.44 69.26 120.67 71.68 121.95 73.67 120.67 71.37 119.44" fill="#b9bfc7"/><polygon points="72.52 107.06 75.5 108.82 70.21 112.21 67.09 110.31 72.52 107.06" fill="#b9bfc7"/><polygon points="67.09 110.31 64.78 116.01 67.09 117.23 70.21 112.21 67.09 110.31" fill="#f3f3f3"/><polygon points="64.78 116.01 62.67 117.23 65.09 118.52 67.09 117.23 64.78 116.01" fill="#b9bfc7"/><polygon points="66.1 103.31 69.09 105.07 63.8 108.47 60.67 106.56 66.1 103.31" fill="#b9bfc7"/><polygon points="60.67 106.56 58.37 112.27 60.67 113.49 63.8 108.47 60.67 106.56" fill="#f3f3f3"/><polygon points="58.37 112.27 56.26 113.49 58.37 114.98 60.67 113.49 58.37 112.27" fill="#b9bfc7"/><polygon points="59.69 99.37 62.67 101.14 57.38 104.53 54.26 102.63 59.69 99.37" fill="#b9bfc7"/><polygon points="54.26 102.63 51.95 108.33 54.26 109.55 57.38 104.53 54.26 102.63" fill="#f3f3f3"/><polygon points="51.95 108.33 49.85 109.55 51.95 111.04 54.26 109.55 51.95 108.33" fill="#b9bfc7"/><polygon points="52.86 95.48 55.85 97.24 50.56 100.64 47.44 98.74 52.86 95.48" fill="#b9bfc7"/><polygon points="47.44 98.74 45.13 104.44 47.44 105.66 50.56 100.64 47.44 98.74" fill="#f3f3f3"/><polygon points="45.13 104.44 43.02 105.66 45.13 107.15 47.44 105.66 45.13 104.44" fill="#b9bfc7"/><polygon points="46.45 92.02 49.44 93.78 44.15 97.18 41.02 95.28 46.45 92.02" fill="#b9bfc7"/><polygon points="41.02 95.28 38.72 100.97 41.02 102.2 44.15 97.18 41.02 95.28" fill="#f3f3f3"/><polygon points="38.72 100.97 36.61 102.2 38.72 103.69 41.02 102.2 38.72 100.97" fill="#b9bfc7"/><polygon points="40.04 88.08 43.02 89.85 37.73 93.24 34.61 91.34 40.04 88.08" fill="#b9bfc7"/><polygon points="34.61 91.34 32.3 97.04 34.61 98.26 37.73 93.24 34.61 91.34" fill="#f3f3f3"/><polygon points="32.3 97.04 30.2 98.26 32.3 99.75 34.61 98.26 32.3 97.04" fill="#b9bfc7"/><polygon points="90.72 109.97 97.08 113.65 93.9 115.66 87.15 112.09 90.72 109.97" fill="#b9bfc7"/><polygon points="97.08 113.65 99.2 119.79 97.08 120.68 93.9 115.66 97.08 113.65" fill="#f3f3f3"/><polygon points="97.08 120.68 99.2 122.47 101.43 121.58 99.2 119.79 97.08 120.68" fill="#b9bfc7"/><polygon points="97.47 106.54 103.83 110.22 100.65 112.23 93.9 108.66 97.47 106.54" fill="#b9bfc7"/><polygon points="103.83 110.22 105.95 116.36 103.83 117.25 100.65 112.23 103.83 110.22" fill="#f3f3f3"/><polygon points="103.83 117.25 105.95 119.04 108.18 118.14 105.95 116.36 103.83 117.25" fill="#b9bfc7"/><polygon points="103.86 102.63 110.22 106.31 107.04 108.32 100.29 104.75 103.86 102.63" fill="#b9bfc7"/><polygon points="110.22 106.31 112.34 112.45 110.22 113.34 107.04 108.32 110.22 106.31" fill="#f3f3f3"/><polygon points="110.22 113.34 112.34 115.13 114.57 114.24 112.34 112.45 110.22 113.34" fill="#b9bfc7"/><polygon points="110.22 99.22 116.58 102.91 113.4 104.92 106.65 101.35 110.22 99.22" fill="#b9bfc7"/><polygon points="116.58 102.91 118.7 109.05 116.58 109.94 113.4 104.92 116.58 102.91" fill="#f3f3f3"/><polygon points="116.58 109.94 118.7 111.72 120.94 110.83 118.7 109.05 116.58 109.94" fill="#b9bfc7"/><polygon points="116.33 95.63 122.69 99.31 119.51 101.32 112.76 97.75 116.33 95.63" fill="#b9bfc7"/><polygon points="122.69 99.31 124.81 105.45 122.69 106.34 119.51 101.32 122.69 99.31" fill="#f3f3f3"/><polygon points="122.69 106.34 124.81 108.13 127.05 107.23 124.81 105.45 122.69 106.34" fill="#b9bfc7"/><polygon points="122.04 92.22 128.4 95.91 125.22 97.92 118.47 94.34 122.04 92.22" fill="#b9bfc7"/><polygon points="128.4 95.91 130.52 102.05 128.4 102.94 125.22 97.92 128.4 95.91" fill="#f3f3f3"/><polygon points="128.4 102.94 130.52 104.72 132.75 103.83 130.52 102.05 128.4 102.94" fill="#b9bfc7"/><polygon points="128.04 88.82 134.4 92.5 131.22 94.51 124.47 90.94 128.04 88.82" fill="#b9bfc7"/><polygon points="134.4 92.5 136.52 98.64 134.4 99.53 131.22 94.51 134.4 92.5" fill="#f3f3f3"/><polygon points="134.4 99.53 136.52 101.32 138.75 100.43 136.52 98.64 134.4 99.53" fill="#b9bfc7"/></svg>