<svg xmlns="http://www.w3.org/2000/svg" xmlns:xlink="http://www.w3.org/1999/xlink" viewBox="0 0 170.76 146.75"><defs><linearGradient id="a" x1="84.96" y1="138.9" x2="84.96" y2="70.85" gradientUnits="userSpaceOnUse"><stop offset="0" stop-color="#0062ff"/><stop offset="1" stop-color="#bb8eff"/></linearGradient></defs><title>data-scientist-illustration-01</title><polygon points="84.68 41.57 -0.04 90.57 85.24 139.57 169.96 90.56 84.68 41.57" fill="url(#a)"/><polygon points="85.02 139.42 84.96 145.57 169.9 96.71 169.96 90.57 85.02 139.42" fill="#054ada"/><polygon points="84.96 139.42 0.02 90.57 -0.04 96.71 84.9 145.57 84.9 145.57 84.96 139.42" fill="#051b75"/><path d="M76.37,119.2a7.08,7.08,0,0,0,6.4,0l51.52-29.63c1.78-1,1.79-2.68,0-3.71L97.52,64.49a7,7,0,0,0-6.4,0L39.59,94.12c-1.77,1-1.78,2.68,0,3.7Z" fill="#0530ad"/><path d="M42,94.22,95.15,63.64A1.72,1.72,0,0,0,96,62.17V21.33a1.7,1.7,0,0,0-2.56-1.47L40.31,50.44a1.71,1.71,0,0,0-.85,1.48V92.75A1.7,1.7,0,0,0,42,94.22Z" fill="#d5d9e0"/><path d="M74.9,117.16a6.08,6.08,0,0,0,5.51,0l51.31-29.61c1.53-.88,1.54-2.31,0-3.19L100,65.93a6.08,6.08,0,0,0-5.51,0L43.19,95.54c-1.53.88-1.54,2.31,0,3.19Z" fill="#9fa5ad"/><path d="M131.74,83.05,100,64.62a6,6,0,0,0-5.51,0L43.19,94.23c-1.53.88-1.54,2.31,0,3.19L74.9,115.85a6.08,6.08,0,0,0,5.51,0l51.31-29.61C133.25,85.36,133.26,83.93,131.74,83.05Z" fill="#f3f3f3"/><path d="M94.37,102.46a1.69,1.69,0,0,0,1.52,0l14.91-8.61a.46.46,0,0,0,0-.87l-8.16-4.74a1.67,1.67,0,0,0-1.51,0L86.22,96.85a.46.46,0,0,0,0,.87Z" fill="#b9bfc7"/><path d="M66.39,105.8l48.37-27.91a.37.37,0,0,0,0-.64l-17.23-10a1,1,0,0,0-1,0L48.1,95.21a.37.37,0,0,0,0,.64l17.25,10A1,1,0,0,0,66.39,105.8Z" fill="#b9bfc7"/><path d="M43,94.6,96.09,64a1.7,1.7,0,0,0,.85-1.47V21.71a1.71,1.71,0,0,0-2.57-1.48L41.25,50.82a1.69,1.69,0,0,0-.84,1.47V93.13A1.7,1.7,0,0,0,43,94.6Z" fill="#f3f3f3"/><polygon points="43.11 92.39 94.25 62.8 94.25 23.49 43.11 52.48 43.11 92.39" fill="#13171a"/><path d="M61.55,58.35c-1.22-3.49-3.66-5.17-6.37-4.36.43-.13.8.12,1,.61a1,1,0,0,1,0,.1l0,.09c0,.07,0,.13,0,.2a2.58,2.58,0,0,1,0,.4,1.09,1.09,0,0,1,0,.18,3,3,0,0,1-.65,1.88,1.22,1.22,0,0,1-.57.41c1.83-.55,3.48.58,4.31,2.94a12.92,12.92,0,0,1-2.17,11.49,3.1,3.1,0,0,0-.52,2.76c.3.85,1,1,1.6.31C62,71.2,63.38,63.57,61.55,58.35Z" fill="#bb8eff"/><path d="M55.31,54a7.61,7.61,0,0,0-3.47,2.45,15.3,15.3,0,0,0-2.69,4.69,21,21,0,0,0-1.31,6.58,3.18,3.18,0,0,1,.65-1.84,1.25,1.25,0,0,1,.6-.4l.17,0c.37,0,.67.28.83.74a2.65,2.65,0,0,1,.13.93v-.07a14.16,14.16,0,0,1,.88-4.37,10.34,10.34,0,0,1,1.82-3.17,5.12,5.12,0,0,1,2.34-1.65,1.25,1.25,0,0,0,.57-.4,3.13,3.13,0,0,0,.64-1.89,1,1,0,0,0,0-.17,2.46,2.46,0,0,0,0-.4c0-.07,0-.14,0-.2l0-.1a.42.42,0,0,1,0-.1C56.1,54.14,55.74,53.88,55.31,54Z" fill="#0062ff"/><path d="M49.09,65.49a1.25,1.25,0,0,0-.6.4,3.18,3.18,0,0,0-.65,1.84,16,16,0,0,0,.79,5.74,7.58,7.58,0,0,0,2.53,3.72c2.19,1.58,5,.88,7.32-1.81a.86.86,0,0,1-1.6-.31,3.08,3.08,0,0,1,.52-2.76c-1.57,1.82-3.46,2.28-4.94,1.22A5.06,5.06,0,0,1,50.75,71a10.8,10.8,0,0,1-.53-3.87v0a2.65,2.65,0,0,0-.13-.93c-.16-.46-.46-.74-.83-.74Z" fill="#f2f4f8"/><path d="M75.64,59.48v1l-3.44,2c-.23.14-.42,0-.42-.23a.91.91,0,0,1,.42-.72Z" fill="#f2f4f8"/><path d="M75.54,55.7l.09,0v.93l-.09.06-7.4,4.28c-.23.13-.41,0-.41-.24a.9.9,0,0,1,.41-.72Z" fill="#f2f4f8"/><path d="M81.83,52.07c.23-.14.41,0,.41.24a.9.9,0,0,1-.41.72l-3.44,2v-1Z" fill="#f2f4f8"/><path d="M87.51,52.63c.23-.14.42,0,.42.24a.94.94,0,0,1-.42.72l-9,5.21v-1Z" fill="#f2f4f8"/><path d="M75.56,63.35l.09,0v.94l-.08.06-7.4,4.27c-.23.13-.42,0-.42-.24a.9.9,0,0,1,.41-.72Z" fill="#f2f4f8"/><path d="M75.66,67.12v1l-6.19,3.58c-.23.13-.42,0-.42-.24a.91.91,0,0,1,.42-.72Z" fill="#f2f4f8"/><path d="M84.16,62.23c.23-.14.42,0,.42.23a.91.91,0,0,1-.42.72L78.42,66.5v-1Z" fill="#f2f4f8"/><path d="M80.13,60.71c.23-.13.41,0,.42.24a.91.91,0,0,1-.42.72l-1.72,1v-1Z" fill="#f2f4f8"/><polygon points="77.48 66.11 77.48 67.06 76.65 67.55 76.64 66.59 77.48 66.11" fill="#f2f4f8"/><polygon points="77.45 54.6 77.45 55.56 76.61 56.04 76.61 55.08 77.45 54.6" fill="#f2f4f8"/><polygon points="77.47 62.27 77.47 63.23 76.64 63.71 76.63 62.75 77.47 62.27" fill="#f2f4f8"/><polygon points="77.46 58.44 77.46 59.39 76.63 59.88 76.62 58.92 77.46 58.44" fill="#f2f4f8"/><path d="M75.64,43.93v1l-3.44,2c-.23.14-.42,0-.42-.24a.94.94,0,0,1,.42-.72Z" fill="#f2f4f8"/><path d="M75.54,40.14l.09,0V41l-.09.06-7.4,4.27c-.23.14-.41,0-.41-.24a.93.93,0,0,1,.41-.72Z" fill="#f2f4f8"/><path d="M81.83,36.51c.23-.13.41,0,.41.24a.88.88,0,0,1-.41.72l-3.44,2v-1Z" fill="#f2f4f8"/><path d="M87.51,37.07c.23-.13.42,0,.42.24a.91.91,0,0,1-.42.72l-9,5.22v-1Z" fill="#f2f4f8"/><path d="M75.66,51.57v1L69.47,56.1c-.23.13-.42,0-.42-.24a.94.94,0,0,1,.42-.72Z" fill="#f2f4f8"/><path d="M84.16,46.67c.23-.13.42,0,.42.24a.91.91,0,0,1-.42.72L78.42,51V50Z" fill="#f2f4f8"/><path d="M75.56,47.79l.09,0v.94l-.08.06L68.17,53c-.23.14-.42,0-.42-.23a.9.9,0,0,1,.41-.72Z" fill="#f2f4f8"/><path d="M80.13,45.16c.23-.14.41,0,.42.24a.94.94,0,0,1-.42.72l-1.72,1v-1Z" fill="#f2f4f8"/><polygon points="77.48 50.55 77.48 51.51 76.65 51.99 76.64 51.03 77.48 50.55" fill="#f2f4f8"/><polygon points="77.45 39.05 77.45 40.01 76.61 40.49 76.61 39.53 77.45 39.05" fill="#f2f4f8"/><polygon points="77.47 46.72 77.47 47.68 76.64 48.16 76.63 47.2 77.47 46.72" fill="#f2f4f8"/><polygon points="77.46 42.88 77.46 43.84 76.63 44.32 76.62 43.36 77.46 42.88" fill="#f2f4f8"/></svg>