<svg xmlns="http://www.w3.org/2000/svg" xmlns:xlink="http://www.w3.org/1999/xlink" viewBox="0 0 170.76 146.75"><defs><linearGradient id="a" x1="-143.46" y1="4805.53" x2="-143.14" y2="4805.53" gradientTransform="translate(-1273.97 46261.1) rotate(-180) scale(9.62)" gradientUnits="userSpaceOnUse"><stop offset="0" stop-color="#fff"/><stop offset="0.99"/><stop offset="1"/></linearGradient><linearGradient id="b" x1="-141.77" y1="4806.28" x2="-141.23" y2="4806.28" gradientTransform="translate(-1273.73 46275.97) rotate(-180) scale(9.62)" xlink:href="#a"/><linearGradient id="c" x1="1094.71" y1="5933.73" x2="1095.26" y2="5933.73" gradientTransform="translate(-56968.54 10565.32) rotate(-90) scale(9.62)" xlink:href="#a"/><linearGradient id="d" x1="12751.73" y1="42.02" x2="12750.76" y2="47.52" gradientTransform="translate(-12645.2)" gradientUnits="userSpaceOnUse"><stop offset="0" stop-color="#171717"/><stop offset="0.73" stop-color="#171717" stop-opacity="0"/></linearGradient><linearGradient id="e" x1="-3262.79" y1="1608.24" x2="-3262.33" y2="1609.45" gradientTransform="matrix(-0.5, 0.87, -0.87, -0.5, -139.51, 3689.13)" gradientUnits="userSpaceOnUse"><stop offset="0" stop-color="#f3f3f3"/><stop offset="0.05" stop-color="#ebeced" stop-opacity="0.87"/><stop offset="0.15" stop-color="#e0e2e4" stop-opacity="0.67"/><stop offset="0.25" stop-color="#d5d8dc" stop-opacity="0.49"/><stop offset="0.35" stop-color="#cdd1d6" stop-opacity="0.34"/><stop offset="0.46" stop-color="#c5cad0" stop-opacity="0.21"/><stop offset="0.57" stop-color="#c0c5cc" stop-opacity="0.12"/><stop offset="0.69" stop-color="#bcc2c9" stop-opacity="0.05"/><stop offset="0.82" stop-color="#bac0c8" stop-opacity="0.01"/><stop offset="1" stop-color="#b9bfc7" stop-opacity="0"/></linearGradient><linearGradient id="f" x1="85.42" y1="139.12" x2="85.42" y2="71.07" gradientUnits="userSpaceOnUse"><stop offset="0" stop-color="#0062ff"/><stop offset="1" stop-color="#bb8eff"/></linearGradient><radialGradient id="g" cx="-2663.42" cy="53.56" r="6.74" gradientTransform="matrix(-1, 0, 0, 1, -2545.13, 0)" gradientUnits="userSpaceOnUse"><stop offset="0.19" stop-color="#f3f3f3"/><stop offset="0.39" stop-color="#ebeced"/><stop offset="0.69" stop-color="#d6d9dd"/><stop offset="1" stop-color="#b9bfc7"/></radialGradient><radialGradient id="h" cx="-2655.87" cy="70.73" r="20.6" gradientTransform="matrix(-1, 0, 0, 1, -2545.13, 0)" gradientUnits="userSpaceOnUse"><stop offset="0" stop-color="#f3f3f3"/><stop offset="0.23" stop-color="#f3f3f3"/><stop offset="1" stop-color="#b9bfc7"/></radialGradient><clipPath id="i"><polygon points="107.14 46.8 108.69 47.72 108.69 41.59 107.12 45.38 107.14 46.8" fill="none"/></clipPath><clipPath id="k"><path d="M104,45.28v-3.7l4.65,2.72-2,3.43c-1.55-.33-2.67-1.3-2.67-2.45" fill="url(#d)"/></clipPath><mask id="l" x="103.38" y="41.28" width="6.35" height="6.35" maskUnits="userSpaceOnUse"><rect x="104.29" y="42.23" width="4.53" height="4.46" transform="translate(2.17 93.81) rotate(-47.95)" fill="url(#a)"/></mask><linearGradient id="m" x1="-143.47" y1="4805.59" x2="-143.1" y2="4805.36" gradientTransform="translate(-1273.97 46261.1) rotate(-180) scale(9.62)" xlink:href="#d"/><mask id="n" x="84.58" y="46.78" width="10.76" height="10.77" maskUnits="userSpaceOnUse"><rect x="86.12" y="48.38" width="7.68" height="7.57" transform="translate(-9.03 84.02) rotate(-47.95)" fill="url(#b)"/></mask><linearGradient id="o" x1="-141.79" y1="4806.38" x2="-141.16" y2="4805.99" gradientTransform="matrix(-9.62, 0, 0, -9.62, -1273.73, 46275.97)" xlink:href="#d"/><linearGradient id="p" x1="12749.65" y1="37.47" x2="12755.31" y2="37.47" gradientTransform="translate(-12645.2)" gradientUnits="userSpaceOnUse"><stop offset="0" stop-color="#0530ad"/><stop offset="0.04" stop-color="#0530ad" stop-opacity="0.87"/><stop offset="0.12" stop-color="#0530ad" stop-opacity="0.64"/><stop offset="0.2" stop-color="#0530ad" stop-opacity="0.44"/><stop offset="0.29" stop-color="#0530ad" stop-opacity="0.28"/><stop offset="0.39" stop-color="#0530ad" stop-opacity="0.16"/><stop offset="0.5" stop-color="#0530ad" stop-opacity="0.07"/><stop offset="0.62" stop-color="#0530ad" stop-opacity="0.02"/><stop offset="0.8" stop-color="#0530ad" stop-opacity="0"/></linearGradient><radialGradient id="q" cx="-2644.06" cy="60.05" r="5.83" xlink:href="#g"/><clipPath id="s"><polygon points="97.01 62.16 98.42 65.37 100.41 55.34 99.39 53.28 97.01 62.16" opacity="0.7" fill="url(#e)"/></clipPath><mask id="t" x="94.09" y="32.83" width="9.56" height="9.63" maskUnits="userSpaceOnUse"><rect x="95.09" y="33.81" width="7.57" height="7.68" transform="translate(-6.79 32.3) rotate(-17.95)" fill="url(#c)"/></mask><linearGradient id="u" x1="1094.69" y1="5933.84" x2="1095.32" y2="5933.44" gradientTransform="translate(-56968.54 10565.32) rotate(-90) scale(9.62)" gradientUnits="userSpaceOnUse"><stop offset="0" stop-color="#418cff"/><stop offset="0.07" stop-color="#3887ff" stop-opacity="0.83"/><stop offset="0.16" stop-color="#2f81ff" stop-opacity="0.64"/><stop offset="0.26" stop-color="#267cff" stop-opacity="0.47"/><stop offset="0.36" stop-color="#1f78ff" stop-opacity="0.32"/><stop offset="0.47" stop-color="#1975ff" stop-opacity="0.2"/><stop offset="0.58" stop-color="#1572ff" stop-opacity="0.11"/><stop offset="0.7" stop-color="#1170ff" stop-opacity="0.05"/><stop offset="0.83" stop-color="#106fff" stop-opacity="0.01"/><stop offset="1" stop-color="#0f6fff" stop-opacity="0"/></linearGradient><radialGradient id="v" cx="-2647.22" cy="59.91" r="6.78" xlink:href="#g"/><linearGradient id="w" x1="-2637.72" y1="74.55" x2="-2656" y2="76.73" gradientTransform="matrix(-1, 0, 0, 1, -2545.13, 0)" gradientUnits="userSpaceOnUse"><stop offset="0" stop-color="#b9bfc7"/><stop offset="0.67" stop-color="#b9bfc7" stop-opacity="0.32"/><stop offset="1" stop-color="#b9bfc7" stop-opacity="0"/></linearGradient><linearGradient id="x" x1="-2655.26" y1="49.06" x2="-2657.15" y2="48.41" gradientTransform="matrix(-1, 0, 0, 1, -2545.13, 0)" gradientUnits="userSpaceOnUse"><stop offset="0.2" stop-color="#97c1ff" stop-opacity="0"/><stop offset="0.29" stop-color="#7ea9f1" stop-opacity="0.17"/><stop offset="0.46" stop-color="#537ed9" stop-opacity="0.46"/><stop offset="0.63" stop-color="#315cc6" stop-opacity="0.7"/><stop offset="0.78" stop-color="#1944b8" stop-opacity="0.86"/><stop offset="0.91" stop-color="#0a35b0" stop-opacity="0.96"/><stop offset="1" stop-color="#0530ad"/></linearGradient><linearGradient id="y" x1="-2661.83" y1="47.76" x2="-2660.08" y2="49.51" gradientTransform="matrix(-1, 0, 0, 1, -2545.13, 0)" gradientUnits="userSpaceOnUse"><stop offset="0.2" stop-color="#0530ad" stop-opacity="0"/><stop offset="0.29" stop-color="#0530ad" stop-opacity="0.17"/><stop offset="0.46" stop-color="#0530ad" stop-opacity="0.46"/><stop offset="0.63" stop-color="#0530ad" stop-opacity="0.7"/><stop offset="0.78" stop-color="#0530ad" stop-opacity="0.86"/><stop offset="0.91" stop-color="#0530ad" stop-opacity="0.96"/><stop offset="1" stop-color="#0530ad"/></linearGradient></defs><title>data-scientist-illustration-01</title><g style="isolation:isolate"><polygon points="85.15 41.78 0.42 90.78 85.7 139.78 170.43 90.78 85.15 41.78" fill="url(#f)"/><polygon points="85.48 139.64 85.42 145.78 170.37 96.93 170.43 90.78 85.48 139.64" fill="#054ada"/><polygon points="85.42 139.64 0.48 90.78 0.42 96.93 85.37 145.78 85.37 145.78 85.42 139.64" fill="#051b75"/><path d="M38.18,38a9.14,9.14,0,0,1,4.15-7.2L95.89,1.3c2.3-1.32,4.18-.25,4.19,2.39l.12,42A9.2,9.2,0,0,1,96,52.93L42.48,84.08c-2.3,1.33-4.18.26-4.18-2.38L38.18,38" fill="#b9bfc7"/><path d="M102.75,2.74c2.42-1.4,4.4-.27,4.41,2.51l-.33,44c0,2.78-2.85,6.48-5.27,7.88L47,88.55c-2.42,1.39-4.42-.38-4-3.6l0-44.17a8.63,8.63,0,0,1,3.92-7.25L102.75,2.74" fill="#13171a"/><polyline points="95.53 21.63 95.6 50.63 97.1 50.62 97.03 21.63" fill="#bb8eff"/><polyline points="91.51 33.48 91.59 53.51 93.09 53.5 93.01 33.47" fill="#bb8eff"/><polyline points="87.23 30.24 87.31 56.85 88.81 56.85 88.73 30.24" fill="#bb8eff"/><polyline points="83.58 50.7 83.66 59.05 85.16 59.04 85.08 50.68" fill="#bb8eff"/><polyline points="79.56 45.93 79.64 61.16 81.14 61.16 81.06 45.92" fill="#bb8eff"/><polyline points="75.37 39.05 75.44 63.42 76.94 63.41 76.87 39.05" fill="#bb8eff"/><polyline points="71.71 31.21 71.79 65.61 73.29 65.61 73.21 31.21" fill="#bb8eff"/><polyline points="67.69 50.09 67.77 67.73 69.27 67.72 69.19 50.09" fill="#bb8eff"/><polyline points="63.42 46.71 63.5 70.6 65 70.59 64.92 46.7" fill="#bb8eff"/><polyline points="59.76 62.52 59.84 73.27 61.34 73.26 61.26 62.51" fill="#bb8eff"/><polyline points="55.74 40.99 55.82 75.38 57.32 75.38 57.24 40.98" fill="#bb8eff"/><polyline points="51.84 57.88 51.91 77.6 53.41 77.6 53.34 57.87" fill="#bb8eff"/><polyline points="99.55 24.33 99.63 48.7 101.13 48.69 101.05 24.33" fill="#bb8eff"/><path d="M109.74,94.13l-.33,13.92-4.29,3.1-2.06-3.23s-.23-7.73-.15-14.1c0-3.45.36-6.13,1.21-7.3" fill="#202529"/><path d="M101.75,104.47c-.92-.53-3.5-1.24-4,1.12a2.63,2.63,0,0,0,.33,2.09l.79.94c1,.33,4.24,2.66,5.73,3.59a2,2,0,0,0,1.09.32h2.17a1.87,1.87,0,0,0,1.25-1.44l.23-3.07-4.34-.82-1.64-2.4A4.69,4.69,0,0,1,101.75,104.47Z" fill="#202529"/><path d="M118.31,91.65,118,105.56l-4.29,3.11-2.06-3.23s-.23-7.74-.15-14.11c0-3.44.36-6.13,1.21-7.3" fill="#202529"/><path d="M110.32,102c-.92-.52-3.5-1.24-4,1.12a2.66,2.66,0,0,0,.33,2.1l.79.94c1,.32,4.24,2.65,5.73,3.59a2.12,2.12,0,0,0,1.09.31h2.17a1.87,1.87,0,0,0,1.25-1.44l.23-3.07-4.34-.81-1.64-2.41A4.69,4.69,0,0,1,110.32,102Z" fill="#202529"/><path d="M119.89,44.76a1.35,1.35,0,0,0-.76-.12,3.06,3.06,0,0,0-.68.25s.08.06.1,0-.25,0-.34.08a4,4,0,0,0-1.6,1.86,6.58,6.58,0,0,0-.4,1.15c-.5,2.48-.67,6-1,8.81a10.11,10.11,0,0,0-.25,2c.24,2.38,1.18,3.3,2.17,3.57a2.5,2.5,0,0,0,3-1.92v0c.09-.36.25-.91.31-1.27.2-1.14.37-2.28.52-3.43a43.94,43.94,0,0,0,.57-6.58c0-1.58,0-3.69-1.71-4.42" stroke="#b9bfc7" stroke-miterlimit="10" fill="url(#g)"/><path d="M101.07,53c.47-1.1,5.24-5.73,7.1-7.32,1.45-1.52,4.4-1.74,6.61-1.23l.79,0c1.64.14,3.55-.1,4.06.42l.06.13c.13.32.26.65.37,1,1,3.05.33,5.71-.8,8.75A37.28,37.28,0,0,0,118,60.15c-.12,1.19-.61,3.51-.63,4.76,0,0,5.22,21.28,5.46,26.26.17,3.44-14.36,6.08-14.36,6.08s-8.88-1.15-9.64-3.33,3.31-26.52,3.31-26.52l-1-14.52" stroke="#b9bfc7" stroke-miterlimit="10" fill="url(#h)"/><path d="M113.1,37.81v9.07c0,1.11-1.34,2-3,2s-3-.9-3-2V37.81Z" fill="#f3f3f3"/><g style="mix-blend-mode:multiply"><g clip-path="url(#i)"><path d="M104,45.28v-3.7l4.65,2.72-2,3.43c-1.55-.33-2.67-1.3-2.67-2.45" fill="url(#d)"/><g clip-path="url(#k)"><g mask="url(#l)"><rect x="104.29" y="42.23" width="4.53" height="4.46" transform="translate(2.17 93.81) rotate(-47.95)" fill="url(#m)"/></g><g mask="url(#n)"><rect x="86.12" y="48.38" width="7.68" height="7.57" transform="translate(-9.03 84.02) rotate(-47.95)" fill="url(#o)"/></g></g></g></g><path d="M110.35,45.17h0a4.19,4.19,0,0,1-2,.49,2.73,2.73,0,0,1-2.78-2.34,20.8,20.8,0,0,1-.52-6.24l.19-.59,7.28.5v7Z" fill="#f3f3f3"/><path d="M105,37.82c.58-.56.47,1.39,1.35,1.46s1.39,1,1.54,1.87l.58,2.23a1.12,1.12,0,0,0,.36.57l.52.45c.78.42,3.26.2,3.75-1.36l1-2a4.92,4.92,0,0,0-.44-5.22c-2.25-3.06-6.64-1.67-8.07.15A3.41,3.41,0,0,0,105,37.82Z" fill="#50565b"/><path d="M107.8,34.45s-2.75,1-3.24,3.21a4.8,4.8,0,0,0,.4,2.82s4.55-1.29,5.11-2.44S107.8,34.45,107.8,34.45Z" fill="#50565b"/><path d="M107.1,38.21a3.13,3.13,0,0,1,.34,1.36,2.37,2.37,0,0,1-1.14,1.94s.29-2-.86-2.84C104.92,38.28,107.1,38.21,107.1,38.21Z" fill="#50565b"/><path d="M107.24,42.46c1,.47,1.84-.91,1.68-2.16-.13-1.06-.86-.84-1.39-.52a1.43,1.43,0,0,0-.69,1l-.43,2.39Z" fill="#f3f3f3"/><path d="M107.76,34.46s-2.75,1-3.23,3.21a4.8,4.8,0,0,0,.4,2.82s4.55-1.29,5.11-2.44S107.76,34.46,107.76,34.46Z" opacity="0.3" fill="url(#p)"/><path d="M103.45,62.87c-.44-.8-1.24-2.59-2-4.47-.13-.32-.26-.63-.4-.94-.59-1.4-1.15-2.75-1.54-3.7,0-.09-.07-.17-.11-.25s0,0,0,0a.14.14,0,0,1,0-.06l-.47-.16-.27-.1a4.11,4.11,0,0,1-2.42,1.38,3,3,0,0,1-1.24.07c-.15,0-.34-.12-.24,0a3.67,3.67,0,0,0-.29,1.28,3.3,3.3,0,0,1,.2.58l.29.76c.24.65.51,1.35.8,2.08.71,1.8,1.52,3.74,2.2,5.23.06.12.12.24.17.36a6.16,6.16,0,0,0,1.16,2.08" stroke="#b9bfc7" stroke-miterlimit="10" fill="url(#q)"/><polygon points="97.01 62.16 98.42 65.37 100.41 55.34 99.39 53.28 97.01 62.16" opacity="0.7" fill="url(#e)"/><g clip-path="url(#s)"><g mask="url(#t)"><rect x="95.09" y="33.81" width="7.57" height="7.68" transform="matrix(0.95, -0.31, 0.31, 0.95, -6.79, 32.3)" fill="url(#u)"/></g></g><path d="M104.3,51.22a1.42,1.42,0,0,0-.75-.17,3.31,3.31,0,0,0-.7.2l-.24.11a4.09,4.09,0,0,0-1.73,1.74,8,8,0,0,0-.48,1.12c-.67,2.44-1.09,6-1.58,8.73a10.62,10.62,0,0,0-.39,2c.08,2.4.94,3.38,1.91,3.72a2.5,2.5,0,0,0,3.16-1.71v0c.12-.35.32-.89.4-1.24.28-1.13.53-2.25.76-3.39a42.31,42.31,0,0,0,1-6.52c.08-1.58.28-3.69-1.39-4.53" stroke="#b9bfc7" stroke-miterlimit="10" fill="url(#v)"/><path d="M105.86,55.33l4.9,13.39-2.34,28.53s-8.9-1.16-9.64-3.33,3-25.13,3-25.13C102.73,68.37,104.11,69.24,105.86,55.33Z" fill="url(#w)"/><path d="M111.43,42.32c.81.86-.22,8.15.12,9,.67,1.67,3.07,3.52,3.7,5.21.2.53.75-.73.75-.73l-3.23-5.37-.31-3.26.14-3.71s.24-2.95-.38-3.69a4.27,4.27,0,0,0-.79-.52S110.15,41,111.43,42.32Z" opacity="0.2" fill="url(#x)"/><path d="M114.07,40.85c.68,3.52,2.05,3.86,3.29,5.08s.87,4.78.87,4.78a3.31,3.31,0,0,1,.33,3.62,17,17,0,0,1-2.72,2.25,8.07,8.07,0,0,0-2.12-3.64A4.84,4.84,0,0,1,112,49.39s.59-6.37-.35-8.62.37-1.45.71-1.46h0l1.68,1.54" fill="#50565b"/><path d="M118.06,52.62c-.45-1.74-2.69-2.47-3.36-4.14-.34-.83,0-3.49-1.2-3.74" opacity="0.3" fill="url(#y)"/><path d="M96.16,54.51a4.11,4.11,0,0,0,2.42-1.38,1,1,0,0,1,0-.57,9.78,9.78,0,0,0,.85-3,8.66,8.66,0,0,0-.81-.9c-.23-.23-.46-.45-.71-.66a4.06,4.06,0,0,1-.49-.36,7.67,7.67,0,0,0-.85-.5c-.09-.05-.16-.12-.11-.11l-.22-.22-.37-.43-.33.12a.66.66,0,0,0,0,.32s0,0,0,.08h0c-.53.34-.46.63-.17,1.14a5.24,5.24,0,0,1,.3.78c0-.08.1.3.18.61l-.06-.07a12.07,12.07,0,0,0-.84-.91L94.45,48a.63.63,0,0,1-.15-.1,1.88,1.88,0,0,0-.16.37,1.08,1.08,0,0,0,.09.83,3.3,3.3,0,0,1,.51.67,4.79,4.79,0,0,1,.3.55l.29.59c-.07.71-.33,1.43-.46,2.14v0a3.05,3.05,0,0,0,0,1.47,2.84,2.84,0,0,0,1.24-.07" fill="#f3f3f3"/></g></svg>