<?xml version="1.0" encoding="UTF-8"?>
<svg width="40px" height="32px" viewBox="0 0 40 32" version="1.1" xmlns="http://www.w3.org/2000/svg" xmlns:xlink="http://www.w3.org/1999/xlink">
    <title>barstack-graph</title>
    <g id="Dashboard-Views" stroke="none" stroke-width="1" fill="none" fill-rule="evenodd">
        <g id="Entity-dashboard-editor" transform="translate(-1344.000000, -311.000000)" fill-rule="nonzero">
            <g id="Group-7" transform="translate(1328.000000, 48.000000)">
                <g id="barstack-graph" transform="translate(16.000000, 263.000000)">
                    <rect id="Rectangle-9" fill="#97C1FF" x="38.1081081" y="7.46666667" width="1.89189189" height="24.1777778"></rect>
                    <rect id="Rectangle-9" fill="#0062FF" x="38.1081081" y="17.0666667" width="1.89189189" height="14.5777778"></rect>
                    <rect id="Rectangle" fill="#FFFFFF" x="38.1081081" y="16.7111111" width="1.89189189" height="1"></rect>
                    <polygon id="Rectangle-9" fill="#97C1FF" points="30.2702703 2.84444444 32.1621622 2.84444444 32.1621622 31.6444444 30.2702703 31.6444444"></polygon>
                    <rect id="Rectangle-9" fill="#0062FF" x="30.2702703" y="9.95555556" width="1.89189189" height="22.0444444"></rect>
                    <rect id="Rectangle" fill="#FFFFFF" x="30.2702703" y="9.6" width="1.89189189" height="1"></rect>
                    <polygon id="Rectangle-9" fill="#97C1FF" points="22.7027027 14.5777778 24.5945946 14.5777778 24.5945946 32 22.7027027 32"></polygon>
                    <rect id="Rectangle-9" fill="#0062FF" x="22.7027027" y="21.3333333" width="1.89189189" height="10.6666667"></rect>
                    <rect id="Rectangle" fill="#FFFFFF" x="22.7027027" y="20.9777778" width="1.89189189" height="1"></rect>
                    <polygon id="Rectangle-9" fill="#97C1FF" points="15.4054054 12.0888889 17.2972973 12.0888889 17.2972973 32 15.4054054 32"></polygon>
                    <rect id="Rectangle-9" fill="#0062FF" x="15.4054054" y="25.6" width="1.89189189" height="6.4"></rect>
                    <rect id="Rectangle" fill="#FFFFFF" x="15.4054054" y="25.2444444" width="1.89189189" height="1"></rect>
                    <polygon id="Rectangle-9" fill="#97C1FF" points="7.83783784 20.2666667 9.72972973 20.2666667 9.72972973 32 7.83783784 32"></polygon>
                    <rect id="Rectangle-9" fill="#0062FF" x="7.83783784" y="23.1111111" width="1.89189189" height="8.88888889"></rect>
                    <rect id="Rectangle" fill="#FFFFFF" x="7.83783784" y="22.7555556" width="1.89189189" height="1"></rect>
                    <rect id="Rectangle-9" fill="#97C1FF" x="0" y="0" width="1.89189189" height="32"></rect>
                    <rect id="Rectangle-9-Copy" fill="#0062FF" x="0" y="14.2222222" width="1.89189189" height="17.7777778"></rect>
                    <rect id="Rectangle" fill="#FFFFFF" x="0" y="13.8666667" width="1.89189189" height="1"></rect>
                </g>
            </g>
        </g>
    </g>
</svg>